<svg width="512" height="512" viewBox="0 0 512 512" fill="none" xmlns="http://www.w3.org/2000/svg">
	<g id="E-motion logo" clip-path="url(#clip0_2205_2)">
		<path id="ripple-3" d="M266.481 337.114C262.53 338.067 258.686 337.19 255.559 334.583L253.028 332.473L250.543 330.411C249.012 329.13 247.519 328.013 246.09 327.036L243.7 325.348L241.262 323.708C240.46 323.164 239.395 322.697 237.934 322.442L231.372 321.317C228.136 320.752 225.184 319.373 222.747 317.145L220.45 315.036L218.106 312.926C215.553 310.587 214.009 307.57 213.372 304.208L212.715 300.973L212.106 297.692C211.959 296.919 211.656 296.37 211.028 295.864L208.45 293.801L205.825 291.692C202.813 289.262 201.037 285.898 200.903 281.942L200.809 278.754L200.668 275.567C200.615 274.054 200.355 272.623 199.872 271.254L197.809 265.348C197.377 264.122 196.996 262.765 196.872 261.411C196.757 260.141 196.789 258.13 197.95 256.208L198.606 255.129L199.262 254.004C199.292 253.933 199.341 253.812 199.403 253.629C199.551 253.193 199.716 252.559 199.918 251.708L200.622 248.801L201.325 245.848C201.796 243.867 202.272 241.911 202.778 239.989L204.278 234.364C204.861 232.151 205.625 229.972 206.575 227.895L207.793 225.27L209.012 222.598C209.775 220.93 210.51 219.199 211.215 217.442L212.34 214.676L213.418 211.911C214.591 208.988 216.526 206.56 219.09 204.739L221.575 203.004L224.012 201.27C225.527 200.198 226.984 199.063 228.325 197.942L232.731 194.286C234.261 193.006 235.813 191.724 237.418 190.489L239.762 188.708L242.059 186.926C243.69 185.672 245.405 184.441 247.168 183.223L249.7 181.489L252.231 179.708C254.441 178.185 256.872 177.031 259.45 176.286L262.356 175.442L265.309 174.598C267.584 173.941 269.927 173.482 272.293 173.192L275.34 172.817L278.434 172.442C281.695 172.042 284.877 172.586 287.809 174.036L290.668 175.489L293.575 176.895C295.377 177.786 297.124 178.573 298.778 179.239L301.45 180.317L304.168 181.442C305.919 182.147 307.708 182.812 309.465 183.458L312.184 184.442L314.903 185.473C316.37 186.011 318.027 186.432 319.872 186.786L323.106 187.442L326.293 188.051C329.469 188.66 332.345 190.023 334.731 192.223L337.028 194.333L339.278 196.442C341.303 198.311 343.005 200.52 344.293 202.958L345.747 205.676L347.2 208.442C347.927 209.818 348.832 211.103 349.918 212.286L352.028 214.63L354.184 216.973C356.58 219.587 357.882 222.772 358.028 226.301L358.168 229.536L358.309 232.723C358.382 234.484 358.632 236.124 359.012 237.645L359.715 240.551L360.465 243.458C361.112 246.048 361.31 248.719 361.075 251.38L360.793 254.333L360.559 257.333C360.4 259.131 360.31 260.954 360.325 262.77L360.325 265.817L360.372 268.817C360.397 271.979 359.547 274.992 357.887 277.676L356.293 280.255L354.653 282.88C354.088 283.798 353.738 284.84 353.622 286.067L353.34 289.208L353.012 292.395C352.733 295.342 351.859 298.133 350.387 300.692L348.84 303.364L347.293 306.083C345.596 309.029 343.108 311.228 340.028 312.598L337.028 313.911L334.075 315.223C332.939 315.727 332.088 316.387 331.45 317.192L327.606 322.067C325.899 324.23 323.853 326.057 321.512 327.505L318.887 329.098L316.309 330.739C313.458 332.503 310.252 333.245 306.934 333.036L303.7 332.801L300.465 332.614C299.166 332.532 298.058 332.735 297.09 333.13L294.325 334.255L291.512 335.379C288.62 336.559 285.547 336.929 282.465 336.411L279.512 335.895L276.559 335.426C275.449 335.24 274.209 335.276 272.809 335.614L269.668 336.364L266.481 337.114ZM263.668 325.442L266.809 324.692L269.997 323.942C272.824 323.26 275.694 323.094 278.528 323.567L281.528 324.083L284.481 324.551C285.35 324.697 286.128 324.611 286.965 324.27L292.59 322.02C295.349 320.896 298.277 320.469 301.262 320.661L304.45 320.848L307.684 321.036C308.65 321.097 309.35 320.911 309.981 320.52L312.606 318.926L315.231 317.286C316.37 316.578 317.343 315.68 318.184 314.614L320.106 312.223L322.028 309.786C323.941 307.361 326.373 305.509 329.2 304.255L332.153 302.942L335.153 301.63C336.029 301.239 336.521 300.719 336.887 300.083L338.434 297.411L339.981 294.692C340.574 293.661 340.937 292.548 341.059 291.27L341.387 288.083L341.668 284.942C341.952 281.947 342.902 279.105 344.481 276.551L346.075 273.973L347.668 271.348C348.158 270.557 348.379 269.775 348.372 268.911L348.325 265.911L348.325 262.864C348.307 260.668 348.414 258.482 348.606 256.301L348.84 253.301L349.122 250.301C349.239 248.971 349.117 247.658 348.793 246.364L348.09 243.458L347.34 240.551C346.751 238.193 346.414 235.751 346.309 233.239L346.168 230.005L346.075 226.817C346.044 226.081 345.815 225.572 345.372 225.083L341.059 220.395C339.296 218.474 337.818 216.356 336.606 214.067L335.106 211.301L333.653 208.536C333.003 207.309 332.182 206.24 331.168 205.301L326.575 201.083C325.916 200.475 325.135 200.027 324.043 199.817L320.809 199.208L317.622 198.598C315.203 198.135 312.887 197.515 310.731 196.723L308.012 195.739L305.293 194.708C303.429 194.022 301.571 193.299 299.715 192.551L296.997 191.473L294.278 190.348C292.323 189.561 290.317 188.684 288.278 187.676L285.372 186.223L282.465 184.817C281.552 184.367 280.729 184.245 279.887 184.348L276.84 184.723L273.747 185.098C272.006 185.312 270.292 185.651 268.637 186.129L265.731 186.973L262.778 187.817C261.436 188.205 260.179 188.803 259.028 189.598L253.965 193.067C252.363 194.174 250.831 195.319 249.372 196.442L247.075 198.223L244.731 200.004C243.254 201.141 241.82 202.301 240.418 203.473L238.215 205.301L236.012 207.176C234.415 208.512 232.712 209.772 230.95 211.02L228.512 212.801L226.028 214.536C225.337 215.03 224.881 215.606 224.575 216.364L223.45 219.176L222.325 221.942C221.551 223.869 220.778 225.77 219.934 227.614L218.715 230.239L217.497 232.911C216.835 234.358 216.311 235.863 215.903 237.411L214.403 243.036C213.92 244.87 213.447 246.763 212.997 248.661L211.59 254.473C211.124 256.434 210.5 258.581 209.528 260.192L209.059 261.083C209.086 261.165 209.072 261.269 209.106 261.364L211.168 267.27C212.068 269.82 212.576 272.473 212.668 275.192L212.762 278.379L212.903 281.52C212.91 281.728 212.928 281.848 212.95 281.895C212.972 281.939 213.076 282.126 213.372 282.364L215.95 284.426L218.575 286.536C221.405 288.82 223.238 291.866 223.918 295.442L225.137 302.004C225.326 302.987 225.702 303.595 226.215 304.067L228.512 306.176L230.856 308.286C231.487 308.861 232.292 309.305 233.434 309.504L239.997 310.629C242.913 311.139 245.65 312.17 248.059 313.817L250.45 315.458L252.887 317.098C254.664 318.313 256.442 319.68 258.231 321.176L260.762 323.286L263.247 325.348C263.349 325.434 263.412 325.477 263.434 325.489C263.473 325.486 263.56 325.468 263.668 325.442Z" fill="url(#paint0_linear_2205_2)" fill-opacity="0.1"/>
		<path id="ripple-2" d="M277.261 133.707L280.324 134.082L283.449 134.519C285.29 134.765 287.131 134.922 288.949 135.019L292.011 135.207L295.074 135.332C298.176 135.497 301.143 136.313 303.949 137.644L306.761 138.957L309.636 140.332C310.549 140.76 311.527 140.966 312.574 141.019L315.699 141.207L318.824 141.332C321.581 141.471 324.316 141.952 326.949 142.769L332.949 144.644C336.244 145.67 339.119 147.489 341.511 149.957L343.761 152.269L345.949 154.519C346.555 155.144 347.259 155.647 348.136 155.957L354.261 158.082C357.37 159.173 360.154 160.89 362.511 163.207L367.011 167.582C369.339 169.871 371.079 172.609 372.261 175.644L373.449 178.644L374.636 181.707C375.108 182.918 375.703 183.869 376.386 184.644L378.386 186.957L380.386 189.207C381.715 190.714 383.112 192.273 384.511 193.832L388.761 198.582C390.627 200.663 392.236 202.974 393.511 205.457L394.949 208.207L396.386 211.019C397.925 214.016 398.717 217.285 398.761 220.644L398.761 223.832L398.824 227.082L398.824 236.707L398.761 239.769C398.755 240.341 398.891 241.039 399.386 241.957L402.636 247.957C403.239 249.075 403.932 250.568 404.324 252.082C404.505 252.788 404.864 254.258 404.574 256.019C404.288 257.727 403.305 259.785 401.386 261.269L401.074 263.394L400.574 266.394C400.18 268.78 399.601 271.16 398.886 273.457L398.011 276.332L397.074 279.269C396.587 280.833 396.198 282.413 395.949 284.019L395.074 290.019C394.805 291.753 394.565 293.588 394.449 295.519L394.074 302.019C393.818 306.261 392.001 310.024 388.886 312.894L386.511 315.082L384.074 317.332C382.858 318.454 381.885 319.623 381.074 320.769L379.324 323.207L377.574 325.707C376.43 327.322 375.273 328.939 374.136 330.582L370.636 335.582C368.92 338.061 366.814 340.193 364.324 341.894L361.761 343.644L359.261 345.332C358.484 345.862 357.782 346.602 357.136 347.582L355.324 350.269L353.574 352.957C351.931 355.454 349.914 357.675 347.574 359.519L345.074 361.457L342.574 363.457C339.82 365.619 336.64 366.977 333.199 367.519L326.824 368.519C324.817 368.835 322.877 369.198 321.011 369.582L315.011 370.832C312.965 371.253 310.91 371.641 308.886 372.019L305.949 372.582L302.949 373.082C301.531 373.347 300.061 373.789 298.574 374.394L295.636 375.582L292.699 376.832C289.428 378.157 285.953 378.571 282.449 378.019L279.324 377.519L276.261 377.019C274.356 376.717 272.443 376.461 270.574 376.269L267.574 375.957L264.511 375.644C262.413 375.428 260.302 375.177 258.199 374.894L255.136 374.519L252.136 374.082C249.154 373.68 246.29 372.751 243.636 371.332L240.949 369.894L238.199 368.457C237.355 368.006 236.368 367.697 235.199 367.582L232.011 367.207L228.761 366.894C225.229 366.544 221.896 365.335 219.011 363.207L216.511 361.332L214.011 359.519C211.683 357.802 209.615 355.723 207.886 353.394L204.136 348.269C203.191 346.996 202.133 345.952 201.074 345.019L196.574 341.019C195.396 339.982 194.048 338.958 192.574 338.019L189.886 336.332L187.199 334.582C183.75 332.381 181.329 329.186 180.199 325.269L179.324 322.144L178.449 319.082C178.226 318.308 177.859 317.677 177.324 317.144L172.824 312.644C170.829 310.657 169.107 308.449 167.699 306.019L166.074 303.269L164.511 300.519C162.902 297.735 161.917 294.716 161.574 291.519L161.199 288.332L160.886 285.207C160.653 283.006 160.465 280.808 160.324 278.644L160.136 275.519L159.949 272.457C159.786 269.972 159.773 267.489 160.011 265.019L160.636 258.894C160.801 257.181 160.87 255.454 160.824 253.769L160.699 250.769L160.636 247.707C160.57 245.237 160.717 242.778 161.074 240.332L161.949 234.332C162.169 232.822 162.252 231.168 162.199 229.457L162.074 226.269L162.011 223.019C161.892 219.126 162.97 215.439 165.261 212.269L167.136 209.707L169.074 207.082C169.793 206.084 170.307 205.012 170.636 203.894L172.386 197.894C173.425 194.367 175.412 191.326 178.199 188.957L183.074 184.832C183.887 184.14 184.494 183.353 184.949 182.457L187.824 176.832C189.497 173.512 192.014 170.876 195.261 169.082L198.011 167.519L200.824 166.019C202.291 165.207 203.622 164.289 204.824 163.332L207.199 161.457L209.511 159.582C210.556 158.749 211.634 157.735 212.636 156.457L214.636 153.832L216.636 151.269C218.932 148.34 221.975 146.167 225.574 145.019L231.574 143.144C234.294 142.277 237.087 141.788 239.949 141.707L243.136 141.582L246.324 141.519C247.679 141.481 248.913 141.272 250.011 140.894L255.761 138.894C257.621 138.252 259.519 137.589 261.449 136.894L264.449 135.832L267.386 134.707C270.558 133.565 273.914 133.257 277.261 133.707ZM272.824 149.769L269.886 150.832L266.886 151.957C264.882 152.678 262.888 153.35 260.949 154.019L258.074 155.019L255.261 156.019C252.542 156.957 249.658 157.438 246.761 157.519L243.574 157.582L240.386 157.707C239.016 157.747 237.708 157.933 236.449 158.332L233.449 159.332L230.449 160.269C230.048 160.397 229.67 160.622 229.261 161.144L227.261 163.707L225.199 166.332C223.503 168.492 221.602 170.414 219.511 172.082L214.761 175.832C212.821 177.378 210.731 178.792 208.511 180.019L205.761 181.519L203.011 183.082C202.564 183.329 202.289 183.591 202.074 184.019L200.636 186.832L199.261 189.644C197.829 192.485 195.871 194.96 193.449 197.019L188.574 201.144C188.123 201.527 187.907 201.905 187.761 202.394L186.824 205.394L185.949 208.457C185.096 211.34 183.776 214.016 182.011 216.457L180.136 219.082L178.261 221.644C178.062 221.92 178 222.125 178.011 222.519L178.074 225.769L178.199 228.957C178.28 231.549 178.125 234.147 177.761 236.644L176.886 242.644C176.663 244.18 176.596 245.722 176.636 247.269L176.699 250.332L176.761 253.332C176.826 255.686 176.801 258.094 176.574 260.457L175.949 266.582C175.797 268.175 175.781 269.778 175.886 271.394L176.074 274.519L176.261 277.582C176.389 279.53 176.612 281.522 176.824 283.519L177.136 286.644L177.449 289.832C177.555 290.804 177.842 291.682 178.324 292.519L179.949 295.269L181.511 298.019C182.21 299.223 183.063 300.324 184.074 301.332L186.324 303.582L188.636 305.832C191.108 308.299 192.858 311.295 193.824 314.644L194.699 317.707L195.574 320.832C195.601 320.925 195.626 320.998 195.636 321.019L195.699 321.019C195.719 321.036 195.769 321.047 195.824 321.082L201.199 324.582C203.32 325.934 205.305 327.407 207.136 329.019L209.386 331.019L211.636 332.957C213.587 334.674 215.37 336.641 216.949 338.769L218.824 341.332L220.761 343.894C221.557 344.962 222.486 345.888 223.511 346.644L226.011 348.457L228.511 350.332C228.986 350.682 229.541 350.941 230.324 351.019L236.824 351.644C239.96 351.959 242.979 352.844 245.761 354.332L248.449 355.769L251.199 357.207C252.178 357.731 253.185 358.062 254.261 358.207L257.324 358.644L260.324 359.019C262.271 359.281 264.26 359.569 266.199 359.769L269.199 360.082L272.261 360.394C274.415 360.616 276.585 360.861 278.761 361.207L281.886 361.707L284.949 362.207C285.525 362.296 286.066 362.214 286.699 361.957L292.574 359.582C295.002 358.594 297.485 357.867 300.011 357.394L303.011 356.832L305.949 356.269C307.872 355.909 309.812 355.545 311.761 355.144L317.761 353.894C319.888 353.456 322.079 353.06 324.324 352.707L330.699 351.707C331.505 351.58 332.148 351.325 332.699 350.894L335.199 348.894L337.636 346.957C338.596 346.202 339.474 345.307 340.199 344.207L341.949 341.457L343.761 338.769C345.481 336.159 347.617 333.911 350.199 332.144L352.761 330.394L355.261 328.707C356.141 328.106 356.915 327.379 357.511 326.519L359.199 323.957L360.949 321.457C362.118 319.767 363.334 318.12 364.511 316.457L366.261 313.957L368.011 311.519C369.523 309.385 371.283 307.406 373.261 305.582L375.636 303.332L378.074 301.144L378.074 301.082L378.324 297.832L378.511 294.582C378.655 292.186 378.911 289.844 379.261 287.582L380.136 281.582C380.507 279.19 381.103 276.835 381.824 274.519L382.699 271.582L383.636 268.707C384.128 267.127 384.487 265.491 384.761 263.832L385.761 257.707C385.961 256.5 386.29 255.154 386.761 253.894C386.857 253.639 386.987 253.339 387.136 253.019L386.949 252.582L385.324 249.582C383.669 246.519 382.725 243.127 382.761 239.582L382.824 236.519L382.824 227.269L382.761 224.082L382.761 220.832C382.747 219.89 382.519 219.077 382.136 218.332L379.261 212.707C378.617 211.457 377.778 210.332 376.824 209.269L372.574 204.519C371.149 202.932 369.744 201.371 368.386 199.832L364.386 195.207C362.382 192.931 360.804 190.356 359.699 187.519L358.511 184.457L357.324 181.457C356.929 180.442 356.413 179.66 355.761 179.019L351.324 174.582C350.697 173.966 349.913 173.482 348.949 173.144L342.824 171.019C339.657 169.902 336.856 168.117 334.511 165.707L330.011 161.082C329.449 160.505 328.874 160.169 328.199 159.957L322.199 158.082C320.851 157.663 319.444 157.404 318.011 157.332L314.886 157.207L311.761 157.019C308.63 156.86 305.595 156.112 302.761 154.769L299.949 153.394L297.074 152.082C296.126 151.634 295.176 151.384 294.199 151.332L291.136 151.144L288.074 151.019C285.816 150.898 283.526 150.698 281.261 150.394L275.136 149.519C274.364 149.415 273.606 149.488 272.824 149.769Z" fill="url(#paint1_linear_2205_2)" fill-opacity="0.3"/>
		<path id="ripple-1" d="M268.566 423.621C264.467 423.342 260.329 422.997 256.222 422.605C251.615 422.163 247.084 421.277 242.629 420.027C238.48 418.863 234.392 417.536 230.363 416.043C226.658 414.669 222.923 413.343 219.191 412.058C215.201 410.684 211.234 409.221 207.316 407.605C202.162 405.48 197.656 402.225 193.879 398.074C192.024 396.043 189.907 394.6 187.551 393.621C183.175 391.8 179.025 389.564 175.129 386.902C170.813 383.952 167.083 380.312 164.035 376.043C162.202 373.476 160.073 371.18 157.629 369.246C153.379 365.875 149.938 361.772 147.394 356.98C145.831 354.03 143.984 351.276 141.847 348.777C138.916 345.349 136.209 341.733 133.801 337.918C131.065 333.582 129.076 328.859 127.863 323.855C127.01 320.343 125.95 316.941 124.66 313.699C122.969 309.446 121.65 305.064 120.754 300.574C119.981 296.706 119.206 292.851 118.41 289.011C117.606 285.136 116.797 281.193 115.988 277.293C115.204 273.513 114.346 269.667 113.41 265.808C112.894 263.678 112.481 261.57 112.316 259.715C112.237 258.814 112.129 257.507 112.316 256.121C112.394 255.548 112.838 254.291 113.566 252.761C113.608 252.51 113.589 252.105 113.644 251.59C113.708 250.995 113.744 250.269 113.801 249.402C114.055 245.465 114.314 241.474 114.504 237.527C114.735 232.752 115.519 228.063 116.847 223.465C117.991 219.507 119.185 215.554 120.441 211.668C121.529 208.298 122.427 204.836 123.097 201.277C123.95 196.748 125.167 192.31 126.769 187.996C128.531 183.255 131.002 178.877 134.113 174.871C136.433 171.883 138.577 168.823 140.597 165.73C142.827 162.316 145.147 158.857 147.472 155.496C149.978 151.878 152.733 148.458 155.676 145.183C158.866 141.633 162.449 138.468 166.379 135.73C168.591 134.186 170.459 132.179 172.082 129.715C175.318 124.799 179.645 120.942 184.894 118.308C188.205 116.647 191.369 114.803 194.426 112.84C198.26 110.376 202.348 108.231 206.535 106.433C210.459 104.75 214.448 103.245 218.488 101.902C222.086 100.706 225.669 99.403 229.191 97.9958C232.865 96.528 236.55 94.9862 240.285 93.4646C245.034 91.5295 250.023 90.4484 255.129 90.1052C259.026 89.843 262.908 89.5033 266.769 89.0896C271.449 88.5883 276.139 88.5479 280.832 89.0115C285.204 89.4435 289.523 90.1393 293.801 91.0427C297.296 91.7812 300.827 92.2558 304.347 92.5271C308.169 92.8214 312.05 93.0037 315.988 93.1521C321.349 93.354 326.507 94.6038 331.379 96.824C335.219 98.5758 339.009 100.419 342.707 102.371C345.301 103.741 348.17 104.772 351.301 105.34C356.781 106.334 361.855 108.393 366.379 111.59C369.801 114.012 373.171 116.53 376.457 119.09C379.88 121.758 383.166 124.619 386.301 127.605C388.737 129.927 391.43 132.052 394.347 133.933C399.296 137.125 403.177 141.407 405.832 146.668C407.42 149.819 409.207 152.748 411.222 155.34C413.788 158.639 416.231 162.026 418.566 165.496C420.858 168.901 423.132 172.379 425.285 175.886C427.617 179.69 429.641 183.652 431.379 187.761C432.824 191.182 434.422 194.57 436.144 197.918C438.107 201.731 439.953 205.649 441.613 209.636C443.556 214.306 444.727 219.214 445.207 224.246C445.638 228.772 445.778 233.303 445.519 237.84C445.298 241.696 445.205 245.558 445.207 249.324C445.209 252.531 445.563 255.824 446.301 259.168C447.452 264.405 447.573 269.695 446.691 274.949C446.078 278.605 445.633 282.309 445.363 286.043C444.98 291.328 443.662 296.406 441.379 301.199C439.726 304.663 438.195 308.19 436.847 311.668C435.546 315.03 434.436 318.5 433.488 322.058C432.023 327.551 429.286 332.465 425.441 336.668C423.19 339.131 421.331 341.735 419.816 344.48C417.792 348.155 415.61 351.791 413.332 355.34C410.727 359.395 407.646 363.072 404.113 366.355C401.598 368.69 399.273 371.263 397.16 374.011C394.476 377.504 391.563 380.837 388.488 384.011C384.85 387.766 380.627 390.796 375.91 393.074C372.698 394.625 369.635 396.41 366.769 398.386C362.784 401.131 358.506 403.361 353.957 405.027C350.274 406.376 346.626 407.75 343.019 409.168C339.587 410.517 336.153 412.039 332.785 413.699C328.06 416.027 323.034 417.46 317.785 417.918C313.896 418.257 310.018 418.611 306.222 419.09C302.5 419.559 298.774 420.128 295.051 420.808C291.065 421.537 287.009 422.258 282.941 422.918C278.185 423.689 273.353 423.946 268.566 423.621ZM115.754 249.558C114.873 250.393 114.284 251.15 114.035 251.59C113.757 252.086 113.635 252.492 113.566 252.683C114.059 251.666 114.684 250.563 115.754 249.558ZM425.519 236.746C425.722 233.21 425.7 229.652 425.363 226.121C425.073 223.085 424.271 220.193 423.097 217.371C421.641 213.87 420.126 210.394 418.41 207.058C416.46 203.268 414.586 199.463 412.941 195.574C411.588 192.373 410.071 189.238 408.254 186.277C406.251 183.014 404.133 179.833 402.004 176.668C399.922 173.574 397.727 170.546 395.441 167.605C392.598 163.95 390.083 159.977 387.941 155.73C386.865 153.594 385.403 151.965 383.488 150.73C379.543 148.184 375.91 145.26 372.551 142.058C369.893 139.527 367.098 137.137 364.191 134.871C361.143 132.495 357.997 130.169 354.816 127.918C352.744 126.457 350.395 125.514 347.707 125.027C342.658 124.11 337.878 122.462 333.41 120.105C330.049 118.33 326.6 116.625 323.097 115.027C320.616 113.895 317.984 113.257 315.207 113.152C311.02 112.994 306.868 112.764 302.785 112.449C298.39 112.11 293.999 111.491 289.66 110.574C286.113 109.825 282.518 109.293 278.879 108.933C275.544 108.604 272.193 108.578 268.879 108.933C264.755 109.375 260.615 109.748 256.457 110.027C253.496 110.226 250.646 110.924 247.863 112.058C244.085 113.598 240.333 115.104 236.613 116.59C232.73 118.141 228.783 119.567 224.816 120.886C221.306 122.054 217.841 123.405 214.426 124.871C211.253 126.233 208.191 127.848 205.285 129.715C201.622 132.067 197.814 134.224 193.879 136.199C191.858 137.212 190.162 138.661 188.801 140.73C185.832 145.237 182.167 149.083 177.785 152.136C175.108 154.002 172.676 156.142 170.519 158.543C168.136 161.197 165.907 163.971 163.879 166.902C161.655 170.116 159.525 173.404 157.394 176.668C155.065 180.236 152.55 183.717 149.894 187.136C148.024 189.544 146.567 192.134 145.519 194.949C144.314 198.195 143.351 201.536 142.707 204.949C141.881 209.332 140.781 213.646 139.426 217.84C138.235 221.521 137.151 225.256 136.066 229.011C135.17 232.112 134.583 235.254 134.426 238.465C134.23 242.519 134.062 246.608 133.801 250.652C133.662 252.796 133.409 254.819 133.097 256.511C132.957 257.273 132.794 258.212 132.472 259.168C132.569 259.664 132.668 260.318 132.863 261.121C133.851 265.191 134.767 269.226 135.597 273.23C136.407 277.131 137.215 281.073 138.019 284.949C138.826 288.838 139.581 292.75 140.363 296.668C141.024 299.978 142.007 303.222 143.254 306.355C144.899 310.491 146.249 314.767 147.316 319.168C148.024 322.084 149.194 324.741 150.754 327.215C152.649 330.216 154.776 333.112 157.082 335.808C160.17 339.425 162.813 343.382 165.051 347.605C166.306 349.97 167.956 351.963 170.051 353.621C173.975 356.728 177.447 360.317 180.363 364.402C182.053 366.766 184.04 368.736 186.379 370.34C189.146 372.231 192.151 373.881 195.285 375.183C200.427 377.327 204.952 380.493 208.722 384.636C210.583 386.678 212.653 388.133 214.972 389.09C218.512 390.549 222.076 391.912 225.676 393.152C229.554 394.488 233.465 395.865 237.316 397.293C240.833 398.596 244.393 399.79 248.019 400.808C251.339 401.74 254.74 402.355 258.176 402.683C262.108 403.059 266.049 403.355 269.972 403.621C273.221 403.84 276.48 403.681 279.738 403.152C283.675 402.513 287.606 401.903 291.457 401.199C295.544 400.452 299.627 399.763 303.722 399.246C307.78 398.734 311.923 398.357 316.066 397.996C318.847 397.753 321.46 396.961 323.957 395.73C327.81 393.831 331.725 392.128 335.676 390.574C339.443 389.092 343.24 387.606 347.082 386.199C350.059 385.108 352.843 383.694 355.441 381.902C359.167 379.333 363.117 377.095 367.238 375.105C369.855 373.841 372.12 372.162 374.113 370.105C376.664 367.472 379.08 364.713 381.301 361.824C384.081 358.208 387.115 354.837 390.441 351.746C392.754 349.599 394.833 347.207 396.535 344.558C398.566 341.396 400.437 338.139 402.238 334.871C404.548 330.678 407.386 326.75 410.676 323.152C412.381 321.287 413.49 319.232 414.113 316.902C415.248 312.642 416.602 308.463 418.176 304.402C419.71 300.443 421.467 296.513 423.332 292.605C424.554 290.041 425.24 287.347 425.441 284.558C425.756 280.223 426.29 275.929 427.004 271.668C427.451 269 427.384 266.264 426.769 263.465C425.733 258.763 425.209 254.037 425.207 249.324C425.205 245.169 425.277 240.973 425.519 236.746Z" fill="url(#paint2_linear_2205_2)" fill-opacity="0.6"/>
		<circle id="dot" cx="280.242" cy="256" r="34.9021" fill="#6633FF"/>
		<path id="dash" d="M9.95898 214.5C9.95898 242.167 9.95898 269.833 9.95898 297.5C14.1902 297.068 18.4213 296.635 22.6525 296.203C98.8137 288.422 174.975 280.641 251.136 272.859C255.367 272.427 259.598 271.995 263.83 271.562C263.83 261.188 263.83 250.812 263.83 240.438C259.598 240.005 255.367 239.573 251.136 239.141C174.975 231.359 98.8137 223.578 22.6525 215.797C18.4213 215.365 14.1902 214.932 9.95898 214.5Z" fill="#6633FF"/>
	<g id="c">
		<mask id="path-9-inside-1_2205_2" fill="white">
			<circle cx="256" cy="256" r="256"/>
		</mask>
		<path d="M512 256C507.308 282.856 498.668 308.154 486.794 330.999C439.216 423.506 340.93 469.806 256 459.125C148.043 448.456 68.669 353.594 70.5 256C70.5 256 70.5 256 70.5 256C68.669 158.406 148.044 63.5442 256 52.875C340.93 42.1943 439.216 88.4944 486.794 181.001C498.668 203.846 507.308 229.144 512 256C516.712 229.159 516.981 200.887 512.274 172.727C495.575 59.0784 387.263 -45.3888 256 -52.875C91.234 -70.1755 -75.3003 80.8713 -70.5 256C-70.5 256 -70.5 256 -70.5 256C-75.3003 431.129 91.2339 582.175 256 564.875C387.263 557.389 495.575 452.922 512.274 339.273C516.981 311.113 516.712 282.841 512 256Z" fill="url(#paint3_radial_2205_2)" mask="url(#path-9-inside-1_2205_2)"/>
		</g>
	</g>
	<defs>
		<linearGradient id="paint0_linear_2205_2" x1="355.403" y1="256" x2="236.772" y2="256" gradientUnits="userSpaceOnUse">
			<stop stop-color="#C6B3FF"/>
			<stop offset="1" stop-color="#C6B3FF" stop-opacity="0"/>
		</linearGradient>
		<linearGradient id="paint1_linear_2205_2" x1="166.324" y1="256" x2="346.129" y2="256" gradientUnits="userSpaceOnUse">
			<stop stop-color="#C6B3FF"/>
			<stop offset="1" stop-color="#C6B3FF" stop-opacity="0"/>
		</linearGradient>
		<linearGradient id="paint2_linear_2205_2" x1="437.082" y1="256" x2="189.531" y2="256" gradientUnits="userSpaceOnUse">
			<stop stop-color="#C6B3FF"/>
			<stop offset="1" stop-color="#C6B3FF" stop-opacity="0"/>
		</linearGradient>
		<radialGradient id="paint3_radial_2205_2" cx="0" cy="0" r="1" gradientUnits="userSpaceOnUse" gradientTransform="translate(512 256) rotate(-180) scale(432.704)">
			<stop offset="0.298077" stop-color="#6633FF" stop-opacity="0"/>
			<stop offset="0.490385" stop-color="#6633FF" stop-opacity="0.19863"/>
			<stop offset="1" stop-color="#6633FF"/>
		</radialGradient>
		<clipPath id="clip0_2205_2">
			<rect width="512" height="512" fill="white"/>
		</clipPath>
	</defs>
</svg>
